Coordinates
nRows=123
nColumns=2
inDegrees=yes
endheader
time	ankle_angle_r	
2.79133	 -0.036571	
2.8629	  0.018493	
2.93448	 -0.033960	
3.00605	 -0.030518	
3.07762	 -0.080153	
3.14919	 -0.019325	
3.22077	 -0.030518	
3.29234	 -0.041294	
3.36391	  0.025827	
3.43548	 -0.030518	
3.50706	 -0.025411	
3.57863	 -0.015259	
3.6502	  0.045776	
3.72177	  0.005731	
3.79335	 -0.064416	
3.86492	  0.012294	
3.93649	 -0.091553	
4.00806	 -0.076294	
4.07964	 -0.052547	
4.15121	 -0.076294	
4.22278	 -0.007187	
4.29435	 -0.068899	
4.36593	 -0.038173	
4.4375	 -0.075931	
4.50907	  0.022499	
4.58065	 -0.092748	
4.65222	 -0.054211	
4.72379	  0.021874	
4.79536	 -0.067443	
4.86694	 -0.067235	
4.93851	 -0.100820	
5.01008	 -0.072602	
5.08165	 -0.081869	
5.15323	 -0.132805	
5.2248	  0.040617	
5.29637	 -0.050728	
5.36794	  0.025774	
5.43952	 -0.148052	
5.51109	  0.106812	
5.58266	 -0.049896	
5.65423	 -0.061035	
5.72581	  0.038370	
5.79738	  0.103316	
5.86895	  0.122070	
5.94052	  0.073215	
6.0121	  0.100167	
6.08367	  0.152588	
6.15524	  0.091553	
6.22681	  0.109059	
6.29839	  0.076294	
6.36996	  0.120239	
6.44153	  0.062658	
6.5131	  0.045776	
6.58468	  0.059828	
6.65625	 -0.002997	
6.72782	 -0.000791	
6.7994	  0.015259	
6.87097	 -0.061410	
6.94254	  0.030351	
7.01411	 -0.091553	
7.08569	  0.060786	
7.15726	  0.000457	
7.22883	 -0.043781	
7.3004	 -0.107685	
7.37198	 -0.059954	
7.44355	  0.031807	
7.51512	 -0.045776	
7.58669	  0.013554	
7.65827	 -0.030518	
7.72984	 -0.002121	
7.80141	 -0.073965	
7.87298	 -0.045776	
7.94456	  0.000000	
8.01613	 -0.067434	
8.0877	 -0.045776	
8.15927	 -0.027148	
8.23085	 -0.076294	
8.30242	 -0.022947	
8.37399	 -0.042498	
8.44556	  0.054179	
8.51714	  0.010849	
8.58871	 -0.019876	
8.66028	  0.035343	
8.73185	  0.005034	
8.80343	  0.020500	
8.875	  0.001090	
8.94657	 -0.061035	
9.01815	 -0.061035	
9.08972	  0.045776	
9.16129	 -0.036799	
9.23286	  0.006490	
9.30444	  0.011532	
9.37601	 -0.076294	
9.44758	 -0.106812	
9.51915	 -0.114749	
9.59073	 -0.083824	
9.6623	 -0.038039	
9.73387	 -0.160534	
9.80544	 -0.061035	
9.87702	 -0.098450	
9.94859	  0.000000	
10.0202	 -0.093850	
10.0917	  0.000000	
10.1633	  0.030518	
10.2349	 -0.133784	
10.3065	  0.000000	
10.378	 -0.167847	
10.4496	 -0.055802	
10.5212	 -0.132304	
10.5927	 -0.122879	
10.6643	 -0.080903	
10.7359	 -0.148187	
10.8075	 -0.156781	
10.879	 -0.122070	
10.9506	 -0.064812	
11.0222	 -0.198364	
11.0937	 -0.145867	
11.1653	 -0.054730	
11.2369	 -0.143218	
11.3085	 -0.076294	
11.38	 -0.089024	
11.4516	 -0.063356	
11.5232	 -0.104699	
